# xmcd
#
# Track frame offsets:
#	150
#	17360
#	33819
#	50346
#	64508
#	79332
#	95301
#	114876
#	131302
#	147423
#	160830
#	174961
#	193140
#	207990
#
# Disc length: 2988 seconds
#
# Revision: 1
# Processed by: cddbd v1.5.2PL0 Copyright (c) Steve Scherf et al.
# Submitted via: audiograbber 1.83.01
#
DISCID=ab0baa0e
DTITLE=CHICO DI PESSOA - MASTRUZ COM LEITE POR
DYEAR=1900
DGENRE=
TTITLE0=OS DEZ MANDAMENTOS
TTITLE1=BARREIRAS
TTITLE2=RAZÕES
TTITLE3=MEU CENÁRIO
TTITLE4=NODA DE CAJU
TTITLE5=BRINCAR DE AMAR
TTITLE6=AVOANTE
TTITLE7=FLOR DO MAMULENGO
TTITLE8=ONDE CANTA O SABIÁ
TTITLE9=MEIO DIA
TTITLE10=TIMIDEZ
TTITLE11=PRA FALAR DE AMOR
TTITLE12=SE LEMBRA CORAÇÃO
TTITLE13=PRA NINAR MEU CORAÇÃO
EXTD=
EXTT0=
EXTT1=
EXTT2=
EXTT3=
EXTT4=
EXTT5=
EXTT6=
EXTT7=
EXTT8=
EXTT9=
EXTT10=
EXTT11=
EXTT12=
EXTT13=
PLAYORDER=
